<mxfile host="app.diagrams.net" agent="Mozilla/5.0 (Windows NT 10.0; Win64; x64) AppleWebKit/537.36 (KHTML, like Gecko) Chrome/134.0.0.0 Safari/537.36 Edg/134.0.0.0" version="26.1.1">
  <diagram name="Page-1" id="e7e014a7-5840-1c2e-5031-d8a46d1fe8dd">
    <mxGraphModel dx="1042" dy="565" grid="1" gridSize="10" guides="1" tooltips="1" connect="1" arrows="1" fold="1" page="1" pageScale="1" pageWidth="1169" pageHeight="826" background="none" math="0" shadow="0">
      <root>
        <mxCell id="0" />
        <mxCell id="1" parent="0" />
        <mxCell id="2" value="Frontend" style="swimlane;whiteSpace=wrap" parent="1" vertex="1">
          <mxGeometry x="164.5" y="128" width="280" height="1022" as="geometry" />
        </mxCell>
        <mxCell id="5" value="" style="ellipse;shape=startState;fillColor=#000000;strokeColor=#ff0000;" parent="2" vertex="1">
          <mxGeometry x="100" y="40" width="30" height="30" as="geometry" />
        </mxCell>
        <mxCell id="6" value="" style="edgeStyle=elbowEdgeStyle;elbow=horizontal;verticalAlign=bottom;endArrow=open;endSize=8;strokeColor=#FF0000;endFill=1;rounded=0" parent="2" source="5" target="7" edge="1">
          <mxGeometry x="100" y="40" as="geometry">
            <mxPoint x="115" y="110" as="targetPoint" />
          </mxGeometry>
        </mxCell>
        <mxCell id="7" value="1. Realiza una petición HTTP" style="" parent="2" vertex="1">
          <mxGeometry x="35.5" y="110" width="170" height="70" as="geometry" />
        </mxCell>
        <mxCell id="38" value="" style="ellipse;shape=endState;fillColor=#000000;strokeColor=#ff0000" parent="2" vertex="1">
          <mxGeometry x="115.5" y="972" width="30" height="30" as="geometry" />
        </mxCell>
        <mxCell id="KXZH2DWmeqlKrD2Gssv8-58" value="12. Cliente recibe la vista y la muestra al usuario" style="whiteSpace=wrap;html=1;rounded=1;" vertex="1" parent="2">
          <mxGeometry x="70.5" y="832" width="120" height="60" as="geometry" />
        </mxCell>
        <mxCell id="KXZH2DWmeqlKrD2Gssv8-60" value="" style="endArrow=open;strokeColor=#FF0000;endFill=1;rounded=0;exitX=0.5;exitY=1;exitDx=0;exitDy=0;entryX=0.5;entryY=0;entryDx=0;entryDy=0;" edge="1" parent="2" source="KXZH2DWmeqlKrD2Gssv8-58" target="38">
          <mxGeometry relative="1" as="geometry">
            <mxPoint x="715.5" y="501" as="sourcePoint" />
            <mxPoint x="440.5" y="552" as="targetPoint" />
          </mxGeometry>
        </mxCell>
        <mxCell id="3" value="Backend" style="swimlane;whiteSpace=wrap" parent="1" vertex="1">
          <mxGeometry x="445" y="128" width="280" height="1022" as="geometry" />
        </mxCell>
        <mxCell id="15" value="2. Controlador recibe la &#xa;petición y la procesa" style="" parent="3" vertex="1">
          <mxGeometry x="70" y="105" width="170" height="80" as="geometry" />
        </mxCell>
        <mxCell id="16" value="3. Controlador invoca el &#xa;servicio correspondiente&#xa;4. Servicio realiza la lógica &#xa;de negocio" style="" parent="3" vertex="1">
          <mxGeometry x="70" y="212" width="170" height="68" as="geometry" />
        </mxCell>
        <mxCell id="17" value="" style="endArrow=open;strokeColor=#FF0000;endFill=1;rounded=0" parent="3" source="15" target="16" edge="1">
          <mxGeometry relative="1" as="geometry" />
        </mxCell>
        <mxCell id="KXZH2DWmeqlKrD2Gssv8-42" value="" style="edgeStyle=orthogonalEdgeStyle;rounded=0;orthogonalLoop=1;jettySize=auto;html=1;" edge="1" parent="3" source="18" target="KXZH2DWmeqlKrD2Gssv8-41">
          <mxGeometry relative="1" as="geometry" />
        </mxCell>
        <mxCell id="18" value="5. Servicio interactua con el &#xa;repositorio para acceder &#xa;a los datos" style="" parent="3" vertex="1">
          <mxGeometry x="70" y="325" width="170" height="75" as="geometry" />
        </mxCell>
        <mxCell id="19" value="" style="endArrow=open;strokeColor=#FF0000;endFill=1;rounded=0" parent="3" source="16" target="18" edge="1">
          <mxGeometry relative="1" as="geometry" />
        </mxCell>
        <mxCell id="KXZH2DWmeqlKrD2Gssv8-41" value="6. Repositorio realiza operaciones en la BD" style="whiteSpace=wrap;html=1;" vertex="1" parent="3">
          <mxGeometry x="60" y="422" width="190" height="78" as="geometry" />
        </mxCell>
        <mxCell id="KXZH2DWmeqlKrD2Gssv8-50" value="" style="edgeStyle=orthogonalEdgeStyle;rounded=0;orthogonalLoop=1;jettySize=auto;html=1;" edge="1" parent="3" source="KXZH2DWmeqlKrD2Gssv8-46" target="KXZH2DWmeqlKrD2Gssv8-49">
          <mxGeometry relative="1" as="geometry" />
        </mxCell>
        <mxCell id="KXZH2DWmeqlKrD2Gssv8-46" value="8. Repositorio develue los datos al servicio" style="rounded=1;whiteSpace=wrap;html=1;" vertex="1" parent="3">
          <mxGeometry x="50" y="542" width="200" height="60" as="geometry" />
        </mxCell>
        <mxCell id="KXZH2DWmeqlKrD2Gssv8-52" value="" style="edgeStyle=orthogonalEdgeStyle;rounded=0;orthogonalLoop=1;jettySize=auto;html=1;" edge="1" parent="3" source="KXZH2DWmeqlKrD2Gssv8-49" target="KXZH2DWmeqlKrD2Gssv8-51">
          <mxGeometry relative="1" as="geometry" />
        </mxCell>
        <mxCell id="KXZH2DWmeqlKrD2Gssv8-49" value="9.Servicio procesa los datos y los devuelve al controlador" style="rounded=1;whiteSpace=wrap;html=1;" vertex="1" parent="3">
          <mxGeometry x="50" y="638" width="200" height="60" as="geometry" />
        </mxCell>
        <mxCell id="KXZH2DWmeqlKrD2Gssv8-56" value="" style="edgeStyle=orthogonalEdgeStyle;rounded=0;orthogonalLoop=1;jettySize=auto;html=1;" edge="1" parent="3" source="KXZH2DWmeqlKrD2Gssv8-51" target="KXZH2DWmeqlKrD2Gssv8-55">
          <mxGeometry relative="1" as="geometry" />
        </mxCell>
        <mxCell id="KXZH2DWmeqlKrD2Gssv8-51" value="10. Controlador prepara los datos para la vista" style="whiteSpace=wrap;html=1;rounded=1;" vertex="1" parent="3">
          <mxGeometry x="50" y="732" width="200" height="60" as="geometry" />
        </mxCell>
        <mxCell id="KXZH2DWmeqlKrD2Gssv8-55" value="11. Controlador devuelve la vista al cliente" style="whiteSpace=wrap;html=1;rounded=1;" vertex="1" parent="3">
          <mxGeometry x="40" y="832" width="220" height="60" as="geometry" />
        </mxCell>
        <mxCell id="4" value="Base de datos" style="swimlane;whiteSpace=wrap" parent="1" vertex="1">
          <mxGeometry x="724.5" y="128" width="280" height="1022" as="geometry" />
        </mxCell>
        <mxCell id="KXZH2DWmeqlKrD2Gssv8-44" value="7. Devuelve los datos al repositorio" style="rounded=1;whiteSpace=wrap;html=1;" vertex="1" parent="4">
          <mxGeometry x="85.5" y="431" width="120" height="60" as="geometry" />
        </mxCell>
        <mxCell id="9" value="" style="endArrow=open;strokeColor=#FF0000;endFill=1;rounded=0;exitX=1;exitY=0.5;exitDx=0;exitDy=0;entryX=0;entryY=0.5;entryDx=0;entryDy=0;" parent="1" source="7" target="15" edge="1">
          <mxGeometry relative="1" as="geometry" />
        </mxCell>
        <mxCell id="KXZH2DWmeqlKrD2Gssv8-45" value="" style="edgeStyle=orthogonalEdgeStyle;rounded=0;orthogonalLoop=1;jettySize=auto;html=1;" edge="1" parent="1" source="KXZH2DWmeqlKrD2Gssv8-41" target="KXZH2DWmeqlKrD2Gssv8-44">
          <mxGeometry relative="1" as="geometry" />
        </mxCell>
        <mxCell id="KXZH2DWmeqlKrD2Gssv8-48" value="" style="endArrow=open;strokeColor=#FF0000;endFill=1;rounded=0;exitX=0.5;exitY=1;exitDx=0;exitDy=0;entryX=0.5;entryY=0;entryDx=0;entryDy=0;" edge="1" parent="1" source="KXZH2DWmeqlKrD2Gssv8-44" target="KXZH2DWmeqlKrD2Gssv8-46">
          <mxGeometry relative="1" as="geometry">
            <mxPoint x="610" y="418" as="sourcePoint" />
            <mxPoint x="610" y="463" as="targetPoint" />
          </mxGeometry>
        </mxCell>
        <mxCell id="KXZH2DWmeqlKrD2Gssv8-59" value="" style="edgeStyle=orthogonalEdgeStyle;rounded=0;orthogonalLoop=1;jettySize=auto;html=1;" edge="1" parent="1" source="KXZH2DWmeqlKrD2Gssv8-55" target="KXZH2DWmeqlKrD2Gssv8-58">
          <mxGeometry relative="1" as="geometry" />
        </mxCell>
      </root>
    </mxGraphModel>
  </diagram>
</mxfile>
